<svg width="217" height="59" viewBox="0 0 217 59" fill="none" xmlns="http://www.w3.org/2000/svg">
<path d="M122.115 34.68H106.395L103.875 42.12H93.1348L108.375 0H120.255L135.495 42.12H124.635L122.115 34.68ZM119.475 26.76L114.255 11.34L109.095 26.76H119.475Z" fill="#282828"/>
<path d="M150.393 13.38C151.393 11.82 152.773 10.56 154.533 9.6C156.293 8.64 158.353 8.16 160.713 8.16C163.473 8.16 165.973 8.86 168.213 10.26C170.453 11.66 172.213 13.66 173.493 16.26C174.813 18.86 175.473 21.88 175.473 25.32C175.473 28.76 174.813 31.8 173.493 34.44C172.213 37.04 170.453 39.06 168.213 40.5C165.973 41.9 163.473 42.6 160.713 42.6C158.393 42.6 156.333 42.12 154.533 41.16C152.773 40.2 151.393 38.96 150.393 37.44V58.08H140.133V8.64H150.393V13.38ZM165.033 25.32C165.033 22.76 164.313 20.76 162.873 19.32C161.473 17.84 159.733 17.1 157.653 17.1C155.613 17.1 153.873 17.84 152.433 19.32C151.033 20.8 150.333 22.82 150.333 25.38C150.333 27.94 151.033 29.96 152.433 31.44C153.873 32.92 155.613 33.66 157.653 33.66C159.693 33.66 161.433 32.92 162.873 31.44C164.313 29.92 165.033 27.88 165.033 25.32Z" fill="#282828"/>
<path d="M191.116 13.38C192.116 11.82 193.496 10.56 195.256 9.6C197.016 8.64 199.076 8.16 201.436 8.16C204.196 8.16 206.696 8.86 208.936 10.26C211.176 11.66 212.936 13.66 214.216 16.26C215.536 18.86 216.196 21.88 216.196 25.32C216.196 28.76 215.536 31.8 214.216 34.44C212.936 37.04 211.176 39.06 208.936 40.5C206.696 41.9 204.196 42.6 201.436 42.6C199.116 42.6 197.056 42.12 195.256 41.16C193.496 40.2 192.116 38.96 191.116 37.44V58.08H180.856V8.64H191.116V13.38ZM205.756 25.32C205.756 22.76 205.036 20.76 203.596 19.32C202.196 17.84 200.456 17.1 198.376 17.1C196.336 17.1 194.596 17.84 193.156 19.32C191.756 20.8 191.056 22.82 191.056 25.38C191.056 27.94 191.756 29.96 193.156 31.44C194.596 32.92 196.336 33.66 198.376 33.66C200.416 33.66 202.156 32.92 203.596 31.44C205.036 29.92 205.756 27.88 205.756 25.32Z" fill="#282828"/>
<path d="M42.72 0L27.78 42.12H14.94L0 0H10.92L21.36 31.8L31.86 0H42.72Z" fill="#282828"/>
<path d="M57.9281 33.72H76.0481V42.12H46.2881V34.32L64.2881 8.4H46.2881V0H76.0481V7.8L57.9281 33.72Z" fill="#282828"/>
</svg>
