<svg width="104" height="28" viewBox="0 0 104 28" fill="none" xmlns="http://www.w3.org/2000/svg">
<path d="M58.3459 16.719H50.8349L49.6309 20.3058H44.4994L51.781 0H57.4572L64.7388 20.3058H59.5499L58.3459 16.719ZM57.0845 12.9008L54.5904 5.46694L52.125 12.9008H57.0845Z" fill="#F4F4F4"/>
<path d="M71.8571 6.45041C72.3349 5.69835 72.9943 5.09091 73.8352 4.6281C74.6761 4.16529 75.6604 3.93388 76.7879 3.93388C78.1067 3.93388 79.3012 4.27135 80.3714 4.94628C81.4417 5.62121 82.2826 6.5854 82.8942 7.83884C83.5249 9.09229 83.8402 10.5482 83.8402 12.2066C83.8402 13.865 83.5249 15.3306 82.8942 16.6033C82.2826 17.8568 81.4417 18.8306 80.3714 19.5248C79.3012 20.1997 78.1067 20.5372 76.7879 20.5372C75.6795 20.5372 74.6952 20.3058 73.8352 19.843C72.9943 19.3802 72.3349 18.7824 71.8571 18.0496V28H66.9549V4.16529H71.8571V6.45041ZM78.852 12.2066C78.852 10.9725 78.508 10.0083 77.82 9.31405C77.1511 8.60055 76.3197 8.2438 75.3259 8.2438C74.3512 8.2438 73.5198 8.60055 72.8318 9.31405C72.1629 10.0275 71.8284 11.0014 71.8284 12.2355C71.8284 13.4697 72.1629 14.4435 72.8318 15.157C73.5198 15.8705 74.3512 16.2273 75.3259 16.2273C76.3006 16.2273 77.132 15.8705 77.82 15.157C78.508 14.4242 78.852 13.4408 78.852 12.2066Z" fill="#F4F4F4"/>
<path d="M91.3142 6.45041C91.792 5.69835 92.4514 5.09091 93.2923 4.6281C94.1332 4.16529 95.1174 3.93388 96.245 3.93388C97.5638 3.93388 98.7583 4.27135 99.8285 4.94628C100.899 5.62121 101.74 6.5854 102.351 7.83884C102.982 9.09229 103.297 10.5482 103.297 12.2066C103.297 13.865 102.982 15.3306 102.351 16.6033C101.74 17.8568 100.899 18.8306 99.8285 19.5248C98.7583 20.1997 97.5638 20.5372 96.245 20.5372C95.1366 20.5372 94.1523 20.3058 93.2923 19.843C92.4514 19.3802 91.792 18.7824 91.3142 18.0496V28H86.412V4.16529H91.3142V6.45041ZM98.3091 12.2066C98.3091 10.9725 97.9651 10.0083 97.2771 9.31405C96.6082 8.60055 95.7768 8.2438 94.783 8.2438C93.8083 8.2438 92.9769 8.60055 92.2889 9.31405C91.62 10.0275 91.2855 11.0014 91.2855 12.2355C91.2855 13.4697 91.62 14.4435 92.2889 15.157C92.9769 15.8705 93.8083 16.2273 94.783 16.2273C95.7577 16.2273 96.5891 15.8705 97.2771 15.157C97.9651 14.4242 98.3091 13.4408 98.3091 12.2066Z" fill="#F4F4F4"/>
<path d="M20.4114 0L13.2732 20.3058H7.13826L0 0H5.21753L10.2057 15.3306L15.2226 0H20.4114Z" fill="#7280FF"/>
<path d="M27.6778 16.2562H36.3354V20.3058H22.1163V16.5455L30.7166 4.04959H22.1163V0H36.3354V3.76033L27.6778 16.2562Z" fill="#7280FF"/>
</svg>
