<svg width="29" height="33" viewBox="0 0 29 33" fill="none" xmlns="http://www.w3.org/2000/svg">
<path fill-rule="evenodd" clip-rule="evenodd" d="M22.5 7.5H10.5C8.84315 7.5 7.5 8.84315 7.5 10.5V26.5C7.5 28.1569 8.84315 29.5 10.5 29.5H22.5C24.1569 29.5 25.5 28.1569 25.5 26.5V10.5C25.5 8.84315 24.1569 7.5 22.5 7.5ZM10.5 4.5C7.18629 4.5 4.5 7.18629 4.5 10.5V26.5C4.5 29.8137 7.18629 32.5 10.5 32.5H22.5C25.8137 32.5 28.5 29.8137 28.5 26.5V10.5C28.5 7.18629 25.8137 4.5 22.5 4.5H10.5Z" fill="#282828"/>
<path fill-rule="evenodd" clip-rule="evenodd" d="M1.5 25.5C0.947715 25.5 0.5 25.0523 0.5 24.5V9.5C0.5 4.52944 4.52944 0.5 9.5 0.5H21.5C22.0523 0.5 22.5 0.947716 22.5 1.5C22.5 2.05228 22.0523 2.5 21.5 2.5H9.5C5.63401 2.5 2.5 5.63401 2.5 9.5V24.5C2.5 25.0523 2.05228 25.5 1.5 25.5Z" fill="#282828"/>
<path fill-rule="evenodd" clip-rule="evenodd" d="M1.5 26C0.671573 26 0 25.3284 0 24.5V9.5C0 4.25329 4.25329 0 9.5 0H21.5C22.3284 0 23 0.671574 23 1.5C23 2.32843 22.3284 3 21.5 3H9.5C5.91015 3 3 5.91015 3 9.5V24.5C3 25.3284 2.32843 26 1.5 26ZM0.5 24.5C0.5 25.0523 0.947715 25.5 1.5 25.5C2.05228 25.5 2.5 25.0523 2.5 24.5V9.5C2.5 5.63401 5.63401 2.5 9.5 2.5H21.5C22.0523 2.5 22.5 2.05228 22.5 1.5C22.5 0.947716 22.0523 0.5 21.5 0.5H9.5C4.52944 0.5 0.5 4.52944 0.5 9.5V24.5Z" fill="#282828"/>
</svg>
