<svg width="34" height="32" viewBox="0 0 34 32" fill="none" xmlns="http://www.w3.org/2000/svg">
<path fill-rule="evenodd" clip-rule="evenodd" d="M28.374 5.367C27.0639 4.11453 25.3042 3.46547 23.5103 3.56566C21.7025 3.66663 20.011 4.52021 18.8436 5.93225C18.8154 5.96637 18.7859 5.99943 18.7553 6.03137L18.2967 6.50869C17.9645 6.85441 17.5063 7.05271 17.0253 7.05887C16.5443 7.06503 16.081 6.87853 15.74 6.54144L15.2771 6.08383C15.2347 6.0419 15.1944 5.99789 15.1564 5.95196C13.9891 4.53992 12.2976 3.68634 10.4897 3.58537C8.69589 3.48518 6.93623 4.1342 5.62606 5.38672C2.88895 8.3331 2.8966 12.9284 5.64899 15.8656L11.9399 22.4219L11.9448 22.427L16.9998 27.6538L22.0579 22.4046L28.3511 15.8458C31.1034 12.9086 31.111 8.31336 28.374 5.367ZM23.3094 0.0157115C26.1262 -0.141605 28.8762 0.888129 30.9022 2.84987C30.9225 2.86948 30.9423 2.88957 30.9616 2.91011C35.0128 7.22335 35.0128 13.9649 30.9616 18.2782L30.9485 18.292L24.6458 24.8606L18.2949 31.4516C17.9577 31.8015 17.4914 31.9996 17.0038 32C16.5163 32.0004 16.0496 31.8032 15.7118 31.4539L9.35425 24.8803L3.05157 18.3117L3.03851 18.2979C-1.01284 13.9847 -1.01284 7.24305 3.03851 2.92981C3.05781 2.90926 3.0776 2.88916 3.09786 2.86954C5.12389 0.90786 7.87382 -0.121901 10.6906 0.0354179C13.0521 0.167305 15.2741 1.12304 16.9894 2.70924C18.7076 1.11125 20.9382 0.148145 23.3094 0.0157115Z" fill="#282828"/>
</svg>
