<svg width="26" height="18" viewBox="0 0 26 18" fill="none" xmlns="http://www.w3.org/2000/svg">
<path fill-rule="evenodd" clip-rule="evenodd" d="M0.5 16C0.5 14.8954 1.39543 14 2.5 14L23.5 14C24.6046 14 25.5 14.8954 25.5 16C25.5 17.1046 24.6046 18 23.5 18L2.5 18C1.39543 18 0.5 17.1046 0.5 16Z" fill="#282828"/>
<path fill-rule="evenodd" clip-rule="evenodd" d="M0.5 9C0.5 7.89543 1.39543 7 2.5 7L23.5 7C24.6046 7 25.5 7.89543 25.5 9C25.5 10.1046 24.6046 11 23.5 11L2.5 11C1.39543 11 0.5 10.1046 0.5 9Z" fill="#282828"/>
<path fill-rule="evenodd" clip-rule="evenodd" d="M0.5 2C0.5 0.89543 1.39543 0 2.5 0L23.5 0C24.6046 0 25.5 0.89543 25.5 2C25.5 3.10457 24.6046 4 23.5 4L2.5 4C1.39543 4 0.5 3.10457 0.5 2Z" fill="#282828"/>
</svg>
