<svg width="25" height="24" viewBox="0 0 25 24" fill="none" xmlns="http://www.w3.org/2000/svg">
<path d="M10.1973 0.808078C10.6009 0.724391 11.0045 0.66488 11.4026 0.625825C11.8118 0.586771 12.2173 0.568174 12.6172 0.571893C12.8422 0.573753 13.0226 0.757866 13.0208 0.982892C13.0189 1.15585 12.9092 1.30276 12.7566 1.36042C11.0548 2.02992 9.69324 3.27779 8.85811 4.82322C8.03599 6.34261 7.72351 8.1484 8.09737 9.97093L8.09923 9.98395C8.52517 12.0408 9.7416 13.7313 11.3691 14.8025C12.9947 15.8737 15.0277 16.3237 17.0848 15.9034L17.0979 15.9016C18.5784 15.5947 19.8674 14.8806 20.8736 13.8968C21.9152 12.8795 22.6518 11.5759 22.981 10.1476C23.0312 9.92815 23.2507 9.79239 23.4683 9.84261C23.6339 9.88166 23.7529 10.0156 23.779 10.1736C24.27 13.1864 23.5279 16.1378 21.9078 18.4885C20.2952 20.828 17.8102 22.5743 14.8064 23.1917C11.7151 23.8277 8.65909 23.1508 6.21692 21.544C3.77289 19.9316 1.94452 17.3931 1.30841 14.3022C0.687169 11.2839 1.31771 8.29904 2.84476 5.88698C4.37925 3.46748 6.81584 1.62078 9.7974 0.897345C9.85506 0.882467 9.92202 0.867589 9.99456 0.850852H9.99642L10.1973 0.808078ZM10.7181 1.53895C10.5991 1.55941 10.48 1.58172 10.3628 1.6059L10.175 1.64681C10.121 1.65983 10.0578 1.67285 9.98898 1.68959C7.22132 2.36095 4.95771 4.07561 3.53481 6.32401C2.11564 8.56498 1.52974 11.336 2.10634 14.1367C2.69782 17.0063 4.39599 19.3644 6.66518 20.8596C8.93251 22.353 11.7709 22.9815 14.6408 22.3902C17.4308 21.8155 19.7391 20.1938 21.2363 18.0217C22.4026 16.3312 23.0777 14.3059 23.1131 12.1803C22.6909 13.032 22.1273 13.8094 21.4465 14.4752C20.3305 15.565 18.9002 16.3591 17.2597 16.6975H17.2578C14.9775 17.1662 12.7232 16.6678 10.9208 15.4813C9.12037 14.2948 7.77187 12.422 7.30316 10.1439V10.142C6.88466 8.11864 7.22876 6.11758 8.14015 4.43454C8.75767 3.29267 9.63744 2.29586 10.7181 1.53895Z" fill="#282828"/>
<path fill-rule="evenodd" clip-rule="evenodd" d="M11.8006 1.16688C11.6868 1.1744 11.5724 1.18365 11.4576 1.19459C11.2227 1.21766 10.9862 1.24816 10.7494 1.28687L10.9176 1.69532C11.1986 1.50193 11.4933 1.32521 11.8006 1.16688ZM23.3567 12.1101C23.3597 11.7628 23.346 11.4129 23.3149 11.0614C23.2055 11.3846 23.0761 11.7001 22.9281 12.006L23.3567 12.1101ZM22.2304 14.4839C22.1066 14.6209 21.9784 14.7543 21.8461 14.8837C20.6543 16.0475 19.1261 16.8959 17.3752 17.2572L17.318 17.269H17.315C14.9002 17.7491 12.5152 17.215 10.6066 15.9586C8.68496 14.6922 7.24396 12.6917 6.74345 10.259L6.73173 10.2021V10.1996C6.30349 8.05946 6.67311 5.94373 7.6376 4.16257M22.2304 14.4839C21.9345 15.6384 21.436 16.726 20.766 17.6972C19.349 19.7528 17.1656 21.2867 14.5255 21.8305C11.8101 22.39 9.12548 21.7958 6.97959 20.3824C4.83163 18.9671 3.22571 16.7366 2.66603 14.0215C2.12049 11.3716 2.67435 8.75078 4.01758 6.62974C5.08903 4.93667 6.6634 3.56415 8.58046 2.75401C8.22249 3.19313 7.90668 3.66504 7.6376 4.16257M23.538 10.2751C23.538 10.2754 23.5381 10.2748 23.538 10.2751V10.2751ZM12.6225 0.000490737C12.2013 -0.00342647 11.7759 0.0161717 11.3483 0.0569828C10.9316 0.0978712 10.5063 0.160439 10.0813 0.248552L9.93626 0.279424H9.92949L9.86609 0.294054C9.85308 0.297056 9.83951 0.300161 9.8256 0.303346C9.77122 0.31579 9.71152 0.329455 9.65883 0.342962C6.52921 1.10339 3.97197 3.04274 2.3622 5.58093C0.75915 8.11303 0.0964706 11.2485 0.748712 14.4174C1.41665 17.6629 3.33733 20.3288 5.90225 22.021C8.46571 23.7076 11.6759 24.4192 14.9215 23.7514C18.0755 23.1031 20.6854 21.2687 22.3783 18.8128C24.0788 16.3454 24.8586 13.2457 24.3429 10.0817C24.2802 9.70077 23.9942 9.37955 23.5996 9.28645L23.5968 9.28581C23.0736 9.16509 22.5458 9.49026 22.4242 10.0193C22.1197 11.3403 21.4381 12.5468 20.4744 13.488C19.5482 14.3935 18.3627 15.0524 16.999 15.3385L16.9872 15.3402L16.9705 15.3436C15.0672 15.7324 13.1877 15.3165 11.6835 14.3253C10.1821 13.3371 9.05961 11.7804 8.66235 9.88518L8.66062 9.87303L8.65715 9.8561C8.31131 8.17018 8.60006 6.5009 9.36069 5.09515C10.1333 3.66537 11.3919 2.5121 12.9631 1.89325C13.3255 1.75424 13.5877 1.40415 13.5922 0.989037C13.5966 0.449844 13.164 0.00528655 12.6225 0.000490737Z" fill="#282828"/>
</svg>
