<svg width="34" height="26" viewBox="0 0 34 26" fill="none" xmlns="http://www.w3.org/2000/svg">
<path d="M5.52769 11.8093C4.81892 12.5181 4.81892 13.6716 5.52769 14.3873C6.23646 15.0961 7.38994 15.0961 8.10566 14.3873C13.0114 9.4815 20.9955 9.4815 25.9013 14.3873C26.2557 14.7417 26.7212 14.9223 27.1868 14.9223C27.6524 14.9223 28.1179 14.7417 28.4723 14.3873C29.1811 13.6785 29.1811 12.525 28.4723 11.8093C22.149 5.47905 11.851 5.47905 5.52769 11.8093Z" fill="#282828"/>
<path d="M10.4474 16.729C9.73861 17.4378 9.73861 18.5913 10.4474 19.307C11.1561 20.0157 12.3096 20.0157 13.0253 19.307C15.2142 17.1112 18.7858 17.1112 20.9747 19.307C21.329 19.6614 21.7946 19.842 22.2602 19.842C22.7257 19.842 23.1913 19.6614 23.5457 19.307C24.2544 18.5982 24.2544 17.4447 23.5457 16.736C19.9393 13.1157 14.0607 13.1157 10.4474 16.729Z" fill="#282828"/>
<path d="M17 25.6998C18.3393 25.6998 19.4251 24.614 19.4251 23.2747C19.4251 21.9353 18.3393 20.8496 17 20.8496C15.6607 20.8496 14.5749 21.9353 14.5749 23.2747C14.5749 24.614 15.6607 25.6998 17 25.6998Z" fill="#282828"/>
<path d="M33.4684 6.80625C24.3865 -2.26875 9.61353 -2.26875 0.531576 6.80625C-0.177192 7.51502 -0.177192 8.6685 0.531576 9.38422C1.24034 10.093 2.39383 10.093 3.10954 9.38422C10.767 1.7198 23.233 1.7198 30.8974 9.38422C31.2518 9.73861 31.7174 9.91927 32.1829 9.91927C32.6485 9.91927 33.114 9.73861 33.4684 9.38422C34.1772 8.67545 34.1772 7.52197 33.4684 6.80625Z" fill="#282828"/>
</svg>
